# xmcd
# 
# Track frame offsets:
#     150
#     19434
#     36143
#     43133
#     62368
# 
# Disc length: 1052
# 
# Revision: 1
# Processed by: cddbd v1.5.2PL0 Copyright (c) Steve Scherf et al.
# Submitted via: fre:ac v1.0.31
# 
DISCID=3c041a05
DTITLE=はちみつロケット - おかしなわたしとはちみつのきみ
DYEAR=2018
DGENRE=Pop
TTITLE0=おかしなわたしとはちみつのきみ
TTITLE1=ハニートランポリン
TTITLE2=おかしなわたしとはちみつのきみ (アニメサイズver.)
TTITLE3=おかしなわたしとはちみつのきみ (off vocal)
TTITLE4=ハニートランポリン (off vocal)
EXTD=
EXTT0=
EXTT1=
EXTT2=
EXTT3=
EXTT4=
PLAYORDER=
